<mxfile host="app.diagrams.net" agent="Mozilla/5.0 (X11; Linux x86_64; rv:132.0) Gecko/20100101 Firefox/132.0" version="24.8.6">
  <diagram name="Page-1" id="NIxjFZZ_wpD7MmikIXAu">
    <mxGraphModel dx="4097" dy="2223" grid="1" gridSize="10" guides="1" tooltips="1" connect="1" arrows="1" fold="1" page="1" pageScale="1" pageWidth="2000" pageHeight="1200" math="0" shadow="0">
      <root>
        <mxCell id="0" />
        <mxCell id="1" parent="0" />
        <mxCell id="zFBNUTTaxacbtHMgRVgU-36" style="edgeStyle=orthogonalEdgeStyle;rounded=0;orthogonalLoop=1;jettySize=auto;html=1;exitX=0.5;exitY=1;exitDx=0;exitDy=0;entryX=0.5;entryY=0;entryDx=0;entryDy=0;" edge="1" parent="1" source="zFBNUTTaxacbtHMgRVgU-1" target="zFBNUTTaxacbtHMgRVgU-2">
          <mxGeometry relative="1" as="geometry" />
        </mxCell>
        <mxCell id="zFBNUTTaxacbtHMgRVgU-1" value="Start" style="ellipse;whiteSpace=wrap;html=1;" vertex="1" parent="1">
          <mxGeometry x="20" width="120" height="80" as="geometry" />
        </mxCell>
        <mxCell id="zFBNUTTaxacbtHMgRVgU-37" style="edgeStyle=orthogonalEdgeStyle;rounded=0;orthogonalLoop=1;jettySize=auto;html=1;exitX=0.5;exitY=1;exitDx=0;exitDy=0;entryX=0.5;entryY=0;entryDx=0;entryDy=0;" edge="1" parent="1" source="zFBNUTTaxacbtHMgRVgU-2" target="zFBNUTTaxacbtHMgRVgU-4">
          <mxGeometry relative="1" as="geometry" />
        </mxCell>
        <mxCell id="zFBNUTTaxacbtHMgRVgU-2" value="vectors book_names, book_available = {true*size(book_names)}" style="rounded=0;whiteSpace=wrap;html=1;" vertex="1" parent="1">
          <mxGeometry y="120" width="160" height="60" as="geometry" />
        </mxCell>
        <mxCell id="zFBNUTTaxacbtHMgRVgU-38" style="edgeStyle=orthogonalEdgeStyle;rounded=0;orthogonalLoop=1;jettySize=auto;html=1;exitX=0.5;exitY=1;exitDx=0;exitDy=0;entryX=0.5;entryY=0;entryDx=0;entryDy=0;" edge="1" parent="1" source="zFBNUTTaxacbtHMgRVgU-4" target="zFBNUTTaxacbtHMgRVgU-5">
          <mxGeometry relative="1" as="geometry" />
        </mxCell>
        <mxCell id="zFBNUTTaxacbtHMgRVgU-4" value="string input" style="rounded=0;whiteSpace=wrap;html=1;" vertex="1" parent="1">
          <mxGeometry x="20" y="220" width="120" height="60" as="geometry" />
        </mxCell>
        <mxCell id="zFBNUTTaxacbtHMgRVgU-39" style="edgeStyle=orthogonalEdgeStyle;rounded=0;orthogonalLoop=1;jettySize=auto;html=1;exitX=0.5;exitY=1;exitDx=0;exitDy=0;entryX=0.5;entryY=0;entryDx=0;entryDy=0;" edge="1" parent="1" source="zFBNUTTaxacbtHMgRVgU-5" target="zFBNUTTaxacbtHMgRVgU-6">
          <mxGeometry relative="1" as="geometry" />
        </mxCell>
        <mxCell id="zFBNUTTaxacbtHMgRVgU-5" value="choice = 5" style="rounded=0;whiteSpace=wrap;html=1;" vertex="1" parent="1">
          <mxGeometry x="20" y="310" width="120" height="60" as="geometry" />
        </mxCell>
        <mxCell id="zFBNUTTaxacbtHMgRVgU-40" style="edgeStyle=orthogonalEdgeStyle;rounded=0;orthogonalLoop=1;jettySize=auto;html=1;exitX=0.5;exitY=1;exitDx=0;exitDy=0;entryX=0.5;entryY=0;entryDx=0;entryDy=0;" edge="1" parent="1" source="zFBNUTTaxacbtHMgRVgU-6" target="zFBNUTTaxacbtHMgRVgU-8">
          <mxGeometry relative="1" as="geometry" />
        </mxCell>
        <mxCell id="zFBNUTTaxacbtHMgRVgU-6" value="output menu prompt" style="shape=parallelogram;perimeter=parallelogramPerimeter;whiteSpace=wrap;html=1;fixedSize=1;" vertex="1" parent="1">
          <mxGeometry x="20" y="400" width="120" height="60" as="geometry" />
        </mxCell>
        <mxCell id="zFBNUTTaxacbtHMgRVgU-8" value="input to input" style="shape=parallelogram;perimeter=parallelogramPerimeter;whiteSpace=wrap;html=1;fixedSize=1;" vertex="1" parent="1">
          <mxGeometry x="20" y="500" width="120" height="60" as="geometry" />
        </mxCell>
        <mxCell id="zFBNUTTaxacbtHMgRVgU-9" value="choice = stoi(input)" style="rounded=0;whiteSpace=wrap;html=1;" vertex="1" parent="1">
          <mxGeometry x="20" y="600" width="120" height="60" as="geometry" />
        </mxCell>
        <mxCell id="zFBNUTTaxacbtHMgRVgU-15" value="yes" style="edgeStyle=orthogonalEdgeStyle;rounded=0;orthogonalLoop=1;jettySize=auto;html=1;exitX=1;exitY=0.5;exitDx=0;exitDy=0;" edge="1" parent="1" source="zFBNUTTaxacbtHMgRVgU-11" target="zFBNUTTaxacbtHMgRVgU-13">
          <mxGeometry relative="1" as="geometry" />
        </mxCell>
        <mxCell id="zFBNUTTaxacbtHMgRVgU-31" value="no" style="edgeStyle=orthogonalEdgeStyle;rounded=0;orthogonalLoop=1;jettySize=auto;html=1;exitX=0.5;exitY=1;exitDx=0;exitDy=0;entryX=0.5;entryY=0;entryDx=0;entryDy=0;" edge="1" parent="1" source="zFBNUTTaxacbtHMgRVgU-11" target="zFBNUTTaxacbtHMgRVgU-17">
          <mxGeometry relative="1" as="geometry" />
        </mxCell>
        <mxCell id="zFBNUTTaxacbtHMgRVgU-11" value="choice == 0" style="rhombus;whiteSpace=wrap;html=1;" vertex="1" parent="1">
          <mxGeometry x="20" y="680" width="120" height="60" as="geometry" />
        </mxCell>
        <mxCell id="zFBNUTTaxacbtHMgRVgU-16" style="edgeStyle=orthogonalEdgeStyle;rounded=0;orthogonalLoop=1;jettySize=auto;html=1;exitX=1;exitY=0.5;exitDx=0;exitDy=0;entryX=0;entryY=0.5;entryDx=0;entryDy=0;" edge="1" parent="1" source="zFBNUTTaxacbtHMgRVgU-13" target="zFBNUTTaxacbtHMgRVgU-14">
          <mxGeometry relative="1" as="geometry" />
        </mxCell>
        <mxCell id="zFBNUTTaxacbtHMgRVgU-13" value="print &quot;Quitting!&quot;" style="shape=parallelogram;perimeter=parallelogramPerimeter;whiteSpace=wrap;html=1;fixedSize=1;" vertex="1" parent="1">
          <mxGeometry x="200" y="680" width="120" height="60" as="geometry" />
        </mxCell>
        <mxCell id="zFBNUTTaxacbtHMgRVgU-14" value="End" style="ellipse;whiteSpace=wrap;html=1;" vertex="1" parent="1">
          <mxGeometry x="360" y="680" width="120" height="60" as="geometry" />
        </mxCell>
        <mxCell id="zFBNUTTaxacbtHMgRVgU-19" value="yes" style="edgeStyle=orthogonalEdgeStyle;rounded=0;orthogonalLoop=1;jettySize=auto;html=1;exitX=1;exitY=0.5;exitDx=0;exitDy=0;entryX=0;entryY=0.5;entryDx=0;entryDy=0;" edge="1" parent="1" source="zFBNUTTaxacbtHMgRVgU-17" target="zFBNUTTaxacbtHMgRVgU-18">
          <mxGeometry relative="1" as="geometry" />
        </mxCell>
        <mxCell id="zFBNUTTaxacbtHMgRVgU-30" value="no" style="edgeStyle=orthogonalEdgeStyle;rounded=0;orthogonalLoop=1;jettySize=auto;html=1;exitX=0.5;exitY=1;exitDx=0;exitDy=0;entryX=0.5;entryY=0;entryDx=0;entryDy=0;" edge="1" parent="1" source="zFBNUTTaxacbtHMgRVgU-17" target="zFBNUTTaxacbtHMgRVgU-21">
          <mxGeometry relative="1" as="geometry" />
        </mxCell>
        <mxCell id="zFBNUTTaxacbtHMgRVgU-17" value="choice == 1" style="rhombus;whiteSpace=wrap;html=1;" vertex="1" parent="1">
          <mxGeometry x="20" y="780" width="120" height="60" as="geometry" />
        </mxCell>
        <mxCell id="zFBNUTTaxacbtHMgRVgU-33" style="edgeStyle=orthogonalEdgeStyle;rounded=0;orthogonalLoop=1;jettySize=auto;html=1;exitX=1;exitY=0.5;exitDx=0;exitDy=0;entryX=1;entryY=0.5;entryDx=0;entryDy=0;" edge="1" parent="1" source="zFBNUTTaxacbtHMgRVgU-18" target="zFBNUTTaxacbtHMgRVgU-8">
          <mxGeometry relative="1" as="geometry">
            <Array as="points">
              <mxPoint x="500" y="810" />
              <mxPoint x="500" y="530" />
            </Array>
          </mxGeometry>
        </mxCell>
        <mxCell id="zFBNUTTaxacbtHMgRVgU-18" value="list_books(...)" style="shape=process;whiteSpace=wrap;html=1;backgroundOutline=1;" vertex="1" parent="1">
          <mxGeometry x="200" y="780" width="120" height="60" as="geometry" />
        </mxCell>
        <mxCell id="zFBNUTTaxacbtHMgRVgU-20" value="yes" style="edgeStyle=orthogonalEdgeStyle;rounded=0;orthogonalLoop=1;jettySize=auto;html=1;exitX=1;exitY=0.5;exitDx=0;exitDy=0;entryX=0;entryY=0.5;entryDx=0;entryDy=0;" edge="1" parent="1" source="zFBNUTTaxacbtHMgRVgU-21" target="zFBNUTTaxacbtHMgRVgU-22">
          <mxGeometry relative="1" as="geometry" />
        </mxCell>
        <mxCell id="zFBNUTTaxacbtHMgRVgU-29" value="no" style="edgeStyle=orthogonalEdgeStyle;rounded=0;orthogonalLoop=1;jettySize=auto;html=1;exitX=0.5;exitY=1;exitDx=0;exitDy=0;entryX=0.5;entryY=0;entryDx=0;entryDy=0;" edge="1" parent="1" source="zFBNUTTaxacbtHMgRVgU-21" target="zFBNUTTaxacbtHMgRVgU-24">
          <mxGeometry relative="1" as="geometry" />
        </mxCell>
        <mxCell id="zFBNUTTaxacbtHMgRVgU-21" value="choice == 2" style="rhombus;whiteSpace=wrap;html=1;" vertex="1" parent="1">
          <mxGeometry x="20" y="880" width="120" height="60" as="geometry" />
        </mxCell>
        <mxCell id="zFBNUTTaxacbtHMgRVgU-34" style="edgeStyle=orthogonalEdgeStyle;rounded=0;orthogonalLoop=1;jettySize=auto;html=1;exitX=1;exitY=0.5;exitDx=0;exitDy=0;entryX=1;entryY=0.5;entryDx=0;entryDy=0;" edge="1" parent="1" source="zFBNUTTaxacbtHMgRVgU-22" target="zFBNUTTaxacbtHMgRVgU-8">
          <mxGeometry relative="1" as="geometry">
            <Array as="points">
              <mxPoint x="500" y="910" />
              <mxPoint x="500" y="530" />
            </Array>
          </mxGeometry>
        </mxCell>
        <mxCell id="zFBNUTTaxacbtHMgRVgU-22" value="borrow(...)" style="shape=process;whiteSpace=wrap;html=1;backgroundOutline=1;" vertex="1" parent="1">
          <mxGeometry x="200" y="880" width="120" height="60" as="geometry" />
        </mxCell>
        <mxCell id="zFBNUTTaxacbtHMgRVgU-23" value="yes" style="edgeStyle=orthogonalEdgeStyle;rounded=0;orthogonalLoop=1;jettySize=auto;html=1;exitX=1;exitY=0.5;exitDx=0;exitDy=0;entryX=0;entryY=0.5;entryDx=0;entryDy=0;" edge="1" parent="1" source="zFBNUTTaxacbtHMgRVgU-24" target="zFBNUTTaxacbtHMgRVgU-25">
          <mxGeometry relative="1" as="geometry" />
        </mxCell>
        <mxCell id="zFBNUTTaxacbtHMgRVgU-27" value="no" style="edgeStyle=orthogonalEdgeStyle;rounded=0;orthogonalLoop=1;jettySize=auto;html=1;exitX=0.5;exitY=1;exitDx=0;exitDy=0;entryX=0.5;entryY=0;entryDx=0;entryDy=0;" edge="1" parent="1" source="zFBNUTTaxacbtHMgRVgU-24" target="zFBNUTTaxacbtHMgRVgU-26">
          <mxGeometry relative="1" as="geometry" />
        </mxCell>
        <mxCell id="zFBNUTTaxacbtHMgRVgU-24" value="choice == 3" style="rhombus;whiteSpace=wrap;html=1;" vertex="1" parent="1">
          <mxGeometry x="20" y="980" width="120" height="60" as="geometry" />
        </mxCell>
        <mxCell id="zFBNUTTaxacbtHMgRVgU-35" style="edgeStyle=orthogonalEdgeStyle;rounded=0;orthogonalLoop=1;jettySize=auto;html=1;exitX=1;exitY=0.5;exitDx=0;exitDy=0;entryX=1;entryY=0.5;entryDx=0;entryDy=0;" edge="1" parent="1" source="zFBNUTTaxacbtHMgRVgU-25" target="zFBNUTTaxacbtHMgRVgU-8">
          <mxGeometry relative="1" as="geometry">
            <Array as="points">
              <mxPoint x="500" y="1010" />
              <mxPoint x="500" y="530" />
            </Array>
          </mxGeometry>
        </mxCell>
        <mxCell id="zFBNUTTaxacbtHMgRVgU-25" value="return(...)" style="shape=process;whiteSpace=wrap;html=1;backgroundOutline=1;" vertex="1" parent="1">
          <mxGeometry x="200" y="980" width="120" height="60" as="geometry" />
        </mxCell>
        <mxCell id="zFBNUTTaxacbtHMgRVgU-32" style="edgeStyle=orthogonalEdgeStyle;rounded=0;orthogonalLoop=1;jettySize=auto;html=1;exitX=0;exitY=0.5;exitDx=0;exitDy=0;entryX=0;entryY=0.5;entryDx=0;entryDy=0;" edge="1" parent="1" source="zFBNUTTaxacbtHMgRVgU-26" target="zFBNUTTaxacbtHMgRVgU-8">
          <mxGeometry relative="1" as="geometry">
            <Array as="points">
              <mxPoint x="10" y="1110" />
              <mxPoint x="10" y="530" />
            </Array>
          </mxGeometry>
        </mxCell>
        <mxCell id="zFBNUTTaxacbtHMgRVgU-26" value="print &quot;Invalid choice&quot;" style="shape=parallelogram;perimeter=parallelogramPerimeter;whiteSpace=wrap;html=1;fixedSize=1;" vertex="1" parent="1">
          <mxGeometry x="20" y="1080" width="120" height="60" as="geometry" />
        </mxCell>
        <mxCell id="zFBNUTTaxacbtHMgRVgU-48" style="edgeStyle=orthogonalEdgeStyle;rounded=0;orthogonalLoop=1;jettySize=auto;html=1;exitX=0.5;exitY=1;exitDx=0;exitDy=0;entryX=0.5;entryY=0;entryDx=0;entryDy=0;" edge="1" parent="1" source="zFBNUTTaxacbtHMgRVgU-41" target="zFBNUTTaxacbtHMgRVgU-42">
          <mxGeometry relative="1" as="geometry" />
        </mxCell>
        <mxCell id="zFBNUTTaxacbtHMgRVgU-41" value="&lt;div&gt;list_books(names, avail)&lt;/div&gt;" style="ellipse;whiteSpace=wrap;html=1;" vertex="1" parent="1">
          <mxGeometry x="560" width="120" height="80" as="geometry" />
        </mxCell>
        <mxCell id="zFBNUTTaxacbtHMgRVgU-49" style="edgeStyle=orthogonalEdgeStyle;rounded=0;orthogonalLoop=1;jettySize=auto;html=1;exitX=0.5;exitY=1;exitDx=0;exitDy=0;entryX=0.5;entryY=0;entryDx=0;entryDy=0;" edge="1" parent="1" source="zFBNUTTaxacbtHMgRVgU-42" target="zFBNUTTaxacbtHMgRVgU-43">
          <mxGeometry relative="1" as="geometry" />
        </mxCell>
        <mxCell id="zFBNUTTaxacbtHMgRVgU-42" value="i = 0, sz = min(names.sz(), avail.sz())" style="rounded=0;whiteSpace=wrap;html=1;" vertex="1" parent="1">
          <mxGeometry x="560" y="120" width="120" height="60" as="geometry" />
        </mxCell>
        <mxCell id="zFBNUTTaxacbtHMgRVgU-47" value="y" style="edgeStyle=orthogonalEdgeStyle;rounded=0;orthogonalLoop=1;jettySize=auto;html=1;exitX=0.5;exitY=1;exitDx=0;exitDy=0;entryX=0.5;entryY=0;entryDx=0;entryDy=0;" edge="1" parent="1" source="zFBNUTTaxacbtHMgRVgU-43" target="zFBNUTTaxacbtHMgRVgU-44">
          <mxGeometry relative="1" as="geometry" />
        </mxCell>
        <mxCell id="zFBNUTTaxacbtHMgRVgU-43" value="i &amp;lt; sz?" style="rhombus;whiteSpace=wrap;html=1;" vertex="1" parent="1">
          <mxGeometry x="580" y="200" width="80" height="80" as="geometry" />
        </mxCell>
        <mxCell id="zFBNUTTaxacbtHMgRVgU-44" value="print book name and avail status" style="shape=parallelogram;perimeter=parallelogramPerimeter;whiteSpace=wrap;html=1;fixedSize=1;" vertex="1" parent="1">
          <mxGeometry x="560" y="310" width="120" height="60" as="geometry" />
        </mxCell>
        <mxCell id="zFBNUTTaxacbtHMgRVgU-46" style="edgeStyle=orthogonalEdgeStyle;rounded=0;orthogonalLoop=1;jettySize=auto;html=1;exitX=0;exitY=0.5;exitDx=0;exitDy=0;entryX=0;entryY=0.5;entryDx=0;entryDy=0;" edge="1" parent="1" source="zFBNUTTaxacbtHMgRVgU-45" target="zFBNUTTaxacbtHMgRVgU-43">
          <mxGeometry relative="1" as="geometry" />
        </mxCell>
        <mxCell id="zFBNUTTaxacbtHMgRVgU-45" value="i++" style="rounded=0;whiteSpace=wrap;html=1;" vertex="1" parent="1">
          <mxGeometry x="560" y="400" width="120" height="60" as="geometry" />
        </mxCell>
        <mxCell id="zFBNUTTaxacbtHMgRVgU-51" value="return" style="ellipse;whiteSpace=wrap;html=1;" vertex="1" parent="1">
          <mxGeometry x="560" y="490" width="120" height="80" as="geometry" />
        </mxCell>
        <mxCell id="zFBNUTTaxacbtHMgRVgU-52" value="n" style="edgeStyle=orthogonalEdgeStyle;rounded=0;orthogonalLoop=1;jettySize=auto;html=1;exitX=1;exitY=0.5;exitDx=0;exitDy=0;entryX=1.006;entryY=0.434;entryDx=0;entryDy=0;entryPerimeter=0;" edge="1" parent="1" source="zFBNUTTaxacbtHMgRVgU-43" target="zFBNUTTaxacbtHMgRVgU-51">
          <mxGeometry x="-0.9419" relative="1" as="geometry">
            <mxPoint as="offset" />
          </mxGeometry>
        </mxCell>
        <mxCell id="zFBNUTTaxacbtHMgRVgU-53" style="edgeStyle=orthogonalEdgeStyle;rounded=0;orthogonalLoop=1;jettySize=auto;html=1;exitX=0.5;exitY=1;exitDx=0;exitDy=0;entryX=0.5;entryY=0;entryDx=0;entryDy=0;" edge="1" parent="1" source="zFBNUTTaxacbtHMgRVgU-54" target="zFBNUTTaxacbtHMgRVgU-56">
          <mxGeometry relative="1" as="geometry" />
        </mxCell>
        <mxCell id="zFBNUTTaxacbtHMgRVgU-54" value="&lt;div&gt;list_avail(names, avail)&lt;/div&gt;" style="ellipse;whiteSpace=wrap;html=1;" vertex="1" parent="1">
          <mxGeometry x="800" width="120" height="80" as="geometry" />
        </mxCell>
        <mxCell id="zFBNUTTaxacbtHMgRVgU-55" style="edgeStyle=orthogonalEdgeStyle;rounded=0;orthogonalLoop=1;jettySize=auto;html=1;exitX=0.5;exitY=1;exitDx=0;exitDy=0;entryX=0.5;entryY=0;entryDx=0;entryDy=0;" edge="1" parent="1" source="zFBNUTTaxacbtHMgRVgU-56" target="zFBNUTTaxacbtHMgRVgU-58">
          <mxGeometry relative="1" as="geometry" />
        </mxCell>
        <mxCell id="zFBNUTTaxacbtHMgRVgU-56" value="i = 0, sz = min(names.sz(), avail.sz())" style="rounded=0;whiteSpace=wrap;html=1;" vertex="1" parent="1">
          <mxGeometry x="800" y="120" width="120" height="60" as="geometry" />
        </mxCell>
        <mxCell id="zFBNUTTaxacbtHMgRVgU-65" value="y" style="edgeStyle=orthogonalEdgeStyle;rounded=0;orthogonalLoop=1;jettySize=auto;html=1;exitX=0.5;exitY=1;exitDx=0;exitDy=0;entryX=0.5;entryY=0;entryDx=0;entryDy=0;" edge="1" parent="1" source="zFBNUTTaxacbtHMgRVgU-58" target="zFBNUTTaxacbtHMgRVgU-64">
          <mxGeometry relative="1" as="geometry" />
        </mxCell>
        <mxCell id="zFBNUTTaxacbtHMgRVgU-58" value="i &amp;lt; sz?" style="rhombus;whiteSpace=wrap;html=1;" vertex="1" parent="1">
          <mxGeometry x="820" y="200" width="80" height="80" as="geometry" />
        </mxCell>
        <mxCell id="zFBNUTTaxacbtHMgRVgU-59" value="print book name" style="shape=parallelogram;perimeter=parallelogramPerimeter;whiteSpace=wrap;html=1;fixedSize=1;" vertex="1" parent="1">
          <mxGeometry x="800" y="400" width="120" height="60" as="geometry" />
        </mxCell>
        <mxCell id="zFBNUTTaxacbtHMgRVgU-60" style="edgeStyle=orthogonalEdgeStyle;rounded=0;orthogonalLoop=1;jettySize=auto;html=1;exitX=0;exitY=0.5;exitDx=0;exitDy=0;entryX=0;entryY=0.5;entryDx=0;entryDy=0;" edge="1" parent="1" source="zFBNUTTaxacbtHMgRVgU-61" target="zFBNUTTaxacbtHMgRVgU-58">
          <mxGeometry relative="1" as="geometry" />
        </mxCell>
        <mxCell id="zFBNUTTaxacbtHMgRVgU-61" value="i++" style="rounded=0;whiteSpace=wrap;html=1;" vertex="1" parent="1">
          <mxGeometry x="800" y="490" width="120" height="60" as="geometry" />
        </mxCell>
        <mxCell id="zFBNUTTaxacbtHMgRVgU-62" value="return" style="ellipse;whiteSpace=wrap;html=1;" vertex="1" parent="1">
          <mxGeometry x="800" y="580" width="120" height="80" as="geometry" />
        </mxCell>
        <mxCell id="zFBNUTTaxacbtHMgRVgU-63" value="n" style="edgeStyle=orthogonalEdgeStyle;rounded=0;orthogonalLoop=1;jettySize=auto;html=1;exitX=1;exitY=0.5;exitDx=0;exitDy=0;entryX=1.006;entryY=0.434;entryDx=0;entryDy=0;entryPerimeter=0;" edge="1" parent="1" source="zFBNUTTaxacbtHMgRVgU-58" target="zFBNUTTaxacbtHMgRVgU-62">
          <mxGeometry x="-0.9419" relative="1" as="geometry">
            <mxPoint as="offset" />
          </mxGeometry>
        </mxCell>
        <mxCell id="zFBNUTTaxacbtHMgRVgU-66" value="y" style="edgeStyle=orthogonalEdgeStyle;rounded=0;orthogonalLoop=1;jettySize=auto;html=1;exitX=0.5;exitY=1;exitDx=0;exitDy=0;entryX=0.5;entryY=0;entryDx=0;entryDy=0;" edge="1" parent="1" source="zFBNUTTaxacbtHMgRVgU-64" target="zFBNUTTaxacbtHMgRVgU-59">
          <mxGeometry relative="1" as="geometry" />
        </mxCell>
        <mxCell id="zFBNUTTaxacbtHMgRVgU-64" value="avail[i]?" style="rhombus;whiteSpace=wrap;html=1;" vertex="1" parent="1">
          <mxGeometry x="820" y="300" width="80" height="80" as="geometry" />
        </mxCell>
        <mxCell id="zFBNUTTaxacbtHMgRVgU-79" style="edgeStyle=orthogonalEdgeStyle;rounded=0;orthogonalLoop=1;jettySize=auto;html=1;exitX=0.5;exitY=1;exitDx=0;exitDy=0;entryX=0.5;entryY=0;entryDx=0;entryDy=0;" edge="1" parent="1" source="zFBNUTTaxacbtHMgRVgU-80" target="zFBNUTTaxacbtHMgRVgU-82">
          <mxGeometry relative="1" as="geometry" />
        </mxCell>
        <mxCell id="zFBNUTTaxacbtHMgRVgU-80" value="&lt;div&gt;list_borrowed(names, avail)&lt;/div&gt;" style="ellipse;whiteSpace=wrap;html=1;" vertex="1" parent="1">
          <mxGeometry x="1040" width="120" height="80" as="geometry" />
        </mxCell>
        <mxCell id="zFBNUTTaxacbtHMgRVgU-81" style="edgeStyle=orthogonalEdgeStyle;rounded=0;orthogonalLoop=1;jettySize=auto;html=1;exitX=0.5;exitY=1;exitDx=0;exitDy=0;entryX=0.5;entryY=0;entryDx=0;entryDy=0;" edge="1" parent="1" source="zFBNUTTaxacbtHMgRVgU-82" target="zFBNUTTaxacbtHMgRVgU-84">
          <mxGeometry relative="1" as="geometry" />
        </mxCell>
        <mxCell id="zFBNUTTaxacbtHMgRVgU-82" value="i = 0, sz = min(names.sz(), avail.sz())" style="rounded=0;whiteSpace=wrap;html=1;" vertex="1" parent="1">
          <mxGeometry x="1040" y="120" width="120" height="60" as="geometry" />
        </mxCell>
        <mxCell id="zFBNUTTaxacbtHMgRVgU-83" value="y" style="edgeStyle=orthogonalEdgeStyle;rounded=0;orthogonalLoop=1;jettySize=auto;html=1;exitX=0.5;exitY=1;exitDx=0;exitDy=0;entryX=0.5;entryY=0;entryDx=0;entryDy=0;" edge="1" parent="1" source="zFBNUTTaxacbtHMgRVgU-84" target="zFBNUTTaxacbtHMgRVgU-91">
          <mxGeometry relative="1" as="geometry" />
        </mxCell>
        <mxCell id="zFBNUTTaxacbtHMgRVgU-84" value="i &amp;lt; sz?" style="rhombus;whiteSpace=wrap;html=1;" vertex="1" parent="1">
          <mxGeometry x="1060" y="200" width="80" height="80" as="geometry" />
        </mxCell>
        <mxCell id="zFBNUTTaxacbtHMgRVgU-85" value="print book name" style="shape=parallelogram;perimeter=parallelogramPerimeter;whiteSpace=wrap;html=1;fixedSize=1;" vertex="1" parent="1">
          <mxGeometry x="1040" y="400" width="120" height="60" as="geometry" />
        </mxCell>
        <mxCell id="zFBNUTTaxacbtHMgRVgU-86" style="edgeStyle=orthogonalEdgeStyle;rounded=0;orthogonalLoop=1;jettySize=auto;html=1;exitX=0;exitY=0.5;exitDx=0;exitDy=0;entryX=0;entryY=0.5;entryDx=0;entryDy=0;" edge="1" parent="1" source="zFBNUTTaxacbtHMgRVgU-87" target="zFBNUTTaxacbtHMgRVgU-84">
          <mxGeometry relative="1" as="geometry" />
        </mxCell>
        <mxCell id="zFBNUTTaxacbtHMgRVgU-87" value="i++" style="rounded=0;whiteSpace=wrap;html=1;" vertex="1" parent="1">
          <mxGeometry x="1040" y="490" width="120" height="60" as="geometry" />
        </mxCell>
        <mxCell id="zFBNUTTaxacbtHMgRVgU-88" value="return" style="ellipse;whiteSpace=wrap;html=1;" vertex="1" parent="1">
          <mxGeometry x="1040" y="580" width="120" height="80" as="geometry" />
        </mxCell>
        <mxCell id="zFBNUTTaxacbtHMgRVgU-89" value="n" style="edgeStyle=orthogonalEdgeStyle;rounded=0;orthogonalLoop=1;jettySize=auto;html=1;exitX=1;exitY=0.5;exitDx=0;exitDy=0;entryX=1.006;entryY=0.434;entryDx=0;entryDy=0;entryPerimeter=0;" edge="1" parent="1" source="zFBNUTTaxacbtHMgRVgU-84" target="zFBNUTTaxacbtHMgRVgU-88">
          <mxGeometry x="-0.9419" relative="1" as="geometry">
            <mxPoint as="offset" />
          </mxGeometry>
        </mxCell>
        <mxCell id="zFBNUTTaxacbtHMgRVgU-90" value="y" style="edgeStyle=orthogonalEdgeStyle;rounded=0;orthogonalLoop=1;jettySize=auto;html=1;exitX=0.5;exitY=1;exitDx=0;exitDy=0;entryX=0.5;entryY=0;entryDx=0;entryDy=0;" edge="1" parent="1" source="zFBNUTTaxacbtHMgRVgU-91" target="zFBNUTTaxacbtHMgRVgU-85">
          <mxGeometry relative="1" as="geometry" />
        </mxCell>
        <mxCell id="zFBNUTTaxacbtHMgRVgU-91" value="NOT avail[i]?" style="rhombus;whiteSpace=wrap;html=1;" vertex="1" parent="1">
          <mxGeometry x="1060" y="300" width="80" height="80" as="geometry" />
        </mxCell>
        <mxCell id="zFBNUTTaxacbtHMgRVgU-104" style="edgeStyle=orthogonalEdgeStyle;rounded=0;orthogonalLoop=1;jettySize=auto;html=1;exitX=0.5;exitY=1;exitDx=0;exitDy=0;entryX=0.5;entryY=0;entryDx=0;entryDy=0;" edge="1" parent="1" source="zFBNUTTaxacbtHMgRVgU-92" target="zFBNUTTaxacbtHMgRVgU-94">
          <mxGeometry relative="1" as="geometry" />
        </mxCell>
        <mxCell id="zFBNUTTaxacbtHMgRVgU-92" value="borrow(names, &amp;amp;avail, index)" style="ellipse;whiteSpace=wrap;html=1;" vertex="1" parent="1">
          <mxGeometry x="1280" width="120" height="80" as="geometry" />
        </mxCell>
        <mxCell id="zFBNUTTaxacbtHMgRVgU-97" value="n" style="edgeStyle=orthogonalEdgeStyle;rounded=0;orthogonalLoop=1;jettySize=auto;html=1;exitX=1;exitY=0.5;exitDx=0;exitDy=0;entryX=0;entryY=0.5;entryDx=0;entryDy=0;" edge="1" parent="1" source="zFBNUTTaxacbtHMgRVgU-94" target="zFBNUTTaxacbtHMgRVgU-95">
          <mxGeometry relative="1" as="geometry" />
        </mxCell>
        <mxCell id="zFBNUTTaxacbtHMgRVgU-103" value="y" style="edgeStyle=orthogonalEdgeStyle;rounded=0;orthogonalLoop=1;jettySize=auto;html=1;exitX=0.5;exitY=1;exitDx=0;exitDy=0;entryX=0.5;entryY=0;entryDx=0;entryDy=0;" edge="1" parent="1" source="zFBNUTTaxacbtHMgRVgU-94" target="zFBNUTTaxacbtHMgRVgU-98">
          <mxGeometry relative="1" as="geometry" />
        </mxCell>
        <mxCell id="zFBNUTTaxacbtHMgRVgU-94" value="avail[i]" style="rhombus;whiteSpace=wrap;html=1;" vertex="1" parent="1">
          <mxGeometry x="1300" y="100" width="80" height="80" as="geometry" />
        </mxCell>
        <mxCell id="zFBNUTTaxacbtHMgRVgU-105" style="edgeStyle=orthogonalEdgeStyle;rounded=0;orthogonalLoop=1;jettySize=auto;html=1;exitX=0.5;exitY=1;exitDx=0;exitDy=0;entryX=0.5;entryY=0;entryDx=0;entryDy=0;" edge="1" parent="1" source="zFBNUTTaxacbtHMgRVgU-95" target="zFBNUTTaxacbtHMgRVgU-96">
          <mxGeometry relative="1" as="geometry" />
        </mxCell>
        <mxCell id="zFBNUTTaxacbtHMgRVgU-95" value="print &quot;is not available&quot;" style="shape=parallelogram;perimeter=parallelogramPerimeter;whiteSpace=wrap;html=1;fixedSize=1;" vertex="1" parent="1">
          <mxGeometry x="1440" y="110" width="120" height="60" as="geometry" />
        </mxCell>
        <mxCell id="zFBNUTTaxacbtHMgRVgU-96" value="return" style="ellipse;whiteSpace=wrap;html=1;" vertex="1" parent="1">
          <mxGeometry x="1440" y="190" width="120" height="80" as="geometry" />
        </mxCell>
        <mxCell id="zFBNUTTaxacbtHMgRVgU-102" style="edgeStyle=orthogonalEdgeStyle;rounded=0;orthogonalLoop=1;jettySize=auto;html=1;exitX=0.5;exitY=1;exitDx=0;exitDy=0;entryX=0.5;entryY=0;entryDx=0;entryDy=0;" edge="1" parent="1" source="zFBNUTTaxacbtHMgRVgU-98" target="zFBNUTTaxacbtHMgRVgU-99">
          <mxGeometry relative="1" as="geometry" />
        </mxCell>
        <mxCell id="zFBNUTTaxacbtHMgRVgU-98" value="avail[i] = false" style="rounded=0;whiteSpace=wrap;html=1;" vertex="1" parent="1">
          <mxGeometry x="1280" y="210" width="120" height="60" as="geometry" />
        </mxCell>
        <mxCell id="zFBNUTTaxacbtHMgRVgU-101" style="edgeStyle=orthogonalEdgeStyle;rounded=0;orthogonalLoop=1;jettySize=auto;html=1;exitX=0.5;exitY=1;exitDx=0;exitDy=0;entryX=0.5;entryY=0;entryDx=0;entryDy=0;" edge="1" parent="1" source="zFBNUTTaxacbtHMgRVgU-99" target="zFBNUTTaxacbtHMgRVgU-100">
          <mxGeometry relative="1" as="geometry" />
        </mxCell>
        <mxCell id="zFBNUTTaxacbtHMgRVgU-99" value="print &quot;borrowed&quot;" style="shape=parallelogram;perimeter=parallelogramPerimeter;whiteSpace=wrap;html=1;fixedSize=1;" vertex="1" parent="1">
          <mxGeometry x="1280" y="300" width="120" height="60" as="geometry" />
        </mxCell>
        <mxCell id="zFBNUTTaxacbtHMgRVgU-100" value="return" style="ellipse;whiteSpace=wrap;html=1;" vertex="1" parent="1">
          <mxGeometry x="1280" y="390" width="120" height="80" as="geometry" />
        </mxCell>
        <mxCell id="zFBNUTTaxacbtHMgRVgU-106" style="edgeStyle=orthogonalEdgeStyle;rounded=0;orthogonalLoop=1;jettySize=auto;html=1;exitX=0.5;exitY=1;exitDx=0;exitDy=0;entryX=0.5;entryY=0;entryDx=0;entryDy=0;" edge="1" parent="1" source="zFBNUTTaxacbtHMgRVgU-107" target="zFBNUTTaxacbtHMgRVgU-110">
          <mxGeometry relative="1" as="geometry" />
        </mxCell>
        <mxCell id="zFBNUTTaxacbtHMgRVgU-107" value="return(names, &amp;amp;avail, index)" style="ellipse;whiteSpace=wrap;html=1;" vertex="1" parent="1">
          <mxGeometry x="1280" y="520" width="120" height="80" as="geometry" />
        </mxCell>
        <mxCell id="zFBNUTTaxacbtHMgRVgU-108" value="n" style="edgeStyle=orthogonalEdgeStyle;rounded=0;orthogonalLoop=1;jettySize=auto;html=1;exitX=1;exitY=0.5;exitDx=0;exitDy=0;entryX=0;entryY=0.5;entryDx=0;entryDy=0;" edge="1" parent="1" source="zFBNUTTaxacbtHMgRVgU-110" target="zFBNUTTaxacbtHMgRVgU-112">
          <mxGeometry relative="1" as="geometry" />
        </mxCell>
        <mxCell id="zFBNUTTaxacbtHMgRVgU-109" value="y" style="edgeStyle=orthogonalEdgeStyle;rounded=0;orthogonalLoop=1;jettySize=auto;html=1;exitX=0.5;exitY=1;exitDx=0;exitDy=0;entryX=0.5;entryY=0;entryDx=0;entryDy=0;" edge="1" parent="1" source="zFBNUTTaxacbtHMgRVgU-110" target="zFBNUTTaxacbtHMgRVgU-115">
          <mxGeometry relative="1" as="geometry" />
        </mxCell>
        <mxCell id="zFBNUTTaxacbtHMgRVgU-110" value="NOT avail[i]" style="rhombus;whiteSpace=wrap;html=1;" vertex="1" parent="1">
          <mxGeometry x="1300" y="620" width="80" height="80" as="geometry" />
        </mxCell>
        <mxCell id="zFBNUTTaxacbtHMgRVgU-111" style="edgeStyle=orthogonalEdgeStyle;rounded=0;orthogonalLoop=1;jettySize=auto;html=1;exitX=0.5;exitY=1;exitDx=0;exitDy=0;entryX=0.5;entryY=0;entryDx=0;entryDy=0;" edge="1" parent="1" source="zFBNUTTaxacbtHMgRVgU-112" target="zFBNUTTaxacbtHMgRVgU-113">
          <mxGeometry relative="1" as="geometry" />
        </mxCell>
        <mxCell id="zFBNUTTaxacbtHMgRVgU-112" value="print &quot;is already returned&quot;" style="shape=parallelogram;perimeter=parallelogramPerimeter;whiteSpace=wrap;html=1;fixedSize=1;" vertex="1" parent="1">
          <mxGeometry x="1440" y="630" width="120" height="60" as="geometry" />
        </mxCell>
        <mxCell id="zFBNUTTaxacbtHMgRVgU-113" value="return" style="ellipse;whiteSpace=wrap;html=1;" vertex="1" parent="1">
          <mxGeometry x="1440" y="710" width="120" height="80" as="geometry" />
        </mxCell>
        <mxCell id="zFBNUTTaxacbtHMgRVgU-114" style="edgeStyle=orthogonalEdgeStyle;rounded=0;orthogonalLoop=1;jettySize=auto;html=1;exitX=0.5;exitY=1;exitDx=0;exitDy=0;entryX=0.5;entryY=0;entryDx=0;entryDy=0;" edge="1" parent="1" source="zFBNUTTaxacbtHMgRVgU-115" target="zFBNUTTaxacbtHMgRVgU-117">
          <mxGeometry relative="1" as="geometry" />
        </mxCell>
        <mxCell id="zFBNUTTaxacbtHMgRVgU-115" value="avail[i] = true" style="rounded=0;whiteSpace=wrap;html=1;" vertex="1" parent="1">
          <mxGeometry x="1280" y="730" width="120" height="60" as="geometry" />
        </mxCell>
        <mxCell id="zFBNUTTaxacbtHMgRVgU-116" style="edgeStyle=orthogonalEdgeStyle;rounded=0;orthogonalLoop=1;jettySize=auto;html=1;exitX=0.5;exitY=1;exitDx=0;exitDy=0;entryX=0.5;entryY=0;entryDx=0;entryDy=0;" edge="1" parent="1" source="zFBNUTTaxacbtHMgRVgU-117" target="zFBNUTTaxacbtHMgRVgU-118">
          <mxGeometry relative="1" as="geometry" />
        </mxCell>
        <mxCell id="zFBNUTTaxacbtHMgRVgU-117" value="print &quot;returned&quot;" style="shape=parallelogram;perimeter=parallelogramPerimeter;whiteSpace=wrap;html=1;fixedSize=1;" vertex="1" parent="1">
          <mxGeometry x="1280" y="820" width="120" height="60" as="geometry" />
        </mxCell>
        <mxCell id="zFBNUTTaxacbtHMgRVgU-118" value="return" style="ellipse;whiteSpace=wrap;html=1;" vertex="1" parent="1">
          <mxGeometry x="1280" y="910" width="120" height="80" as="geometry" />
        </mxCell>
        <mxCell id="zFBNUTTaxacbtHMgRVgU-126" style="edgeStyle=orthogonalEdgeStyle;rounded=0;orthogonalLoop=1;jettySize=auto;html=1;exitX=0.5;exitY=1;exitDx=0;exitDy=0;entryX=0.5;entryY=0;entryDx=0;entryDy=0;" edge="1" parent="1" source="zFBNUTTaxacbtHMgRVgU-119" target="zFBNUTTaxacbtHMgRVgU-120">
          <mxGeometry relative="1" as="geometry" />
        </mxCell>
        <mxCell id="zFBNUTTaxacbtHMgRVgU-119" value="borrow(names, &amp;amp;avail)" style="ellipse;whiteSpace=wrap;html=1;" vertex="1" parent="1">
          <mxGeometry x="1640" width="120" height="80" as="geometry" />
        </mxCell>
        <mxCell id="zFBNUTTaxacbtHMgRVgU-127" style="edgeStyle=orthogonalEdgeStyle;rounded=0;orthogonalLoop=1;jettySize=auto;html=1;exitX=0.5;exitY=1;exitDx=0;exitDy=0;entryX=0.5;entryY=0;entryDx=0;entryDy=0;" edge="1" parent="1" source="zFBNUTTaxacbtHMgRVgU-120" target="zFBNUTTaxacbtHMgRVgU-121">
          <mxGeometry relative="1" as="geometry" />
        </mxCell>
        <mxCell id="zFBNUTTaxacbtHMgRVgU-120" value="string input" style="rounded=0;whiteSpace=wrap;html=1;" vertex="1" parent="1">
          <mxGeometry x="1640" y="110" width="120" height="60" as="geometry" />
        </mxCell>
        <mxCell id="zFBNUTTaxacbtHMgRVgU-128" style="edgeStyle=orthogonalEdgeStyle;rounded=0;orthogonalLoop=1;jettySize=auto;html=1;exitX=0.5;exitY=1;exitDx=0;exitDy=0;entryX=0.5;entryY=0;entryDx=0;entryDy=0;" edge="1" parent="1" source="zFBNUTTaxacbtHMgRVgU-121" target="zFBNUTTaxacbtHMgRVgU-122">
          <mxGeometry relative="1" as="geometry" />
        </mxCell>
        <mxCell id="zFBNUTTaxacbtHMgRVgU-121" value="index" style="rounded=0;whiteSpace=wrap;html=1;" vertex="1" parent="1">
          <mxGeometry x="1640" y="200" width="120" height="60" as="geometry" />
        </mxCell>
        <mxCell id="zFBNUTTaxacbtHMgRVgU-129" style="edgeStyle=orthogonalEdgeStyle;rounded=0;orthogonalLoop=1;jettySize=auto;html=1;exitX=0.5;exitY=1;exitDx=0;exitDy=0;entryX=0.5;entryY=0;entryDx=0;entryDy=0;" edge="1" parent="1" source="zFBNUTTaxacbtHMgRVgU-122" target="zFBNUTTaxacbtHMgRVgU-123">
          <mxGeometry relative="1" as="geometry" />
        </mxCell>
        <mxCell id="zFBNUTTaxacbtHMgRVgU-122" value="list_borrowed(...)" style="shape=process;whiteSpace=wrap;html=1;backgroundOutline=1;" vertex="1" parent="1">
          <mxGeometry x="1640" y="300" width="120" height="60" as="geometry" />
        </mxCell>
        <mxCell id="zFBNUTTaxacbtHMgRVgU-130" style="edgeStyle=orthogonalEdgeStyle;rounded=0;orthogonalLoop=1;jettySize=auto;html=1;exitX=0.5;exitY=1;exitDx=0;exitDy=0;entryX=0.5;entryY=0;entryDx=0;entryDy=0;" edge="1" parent="1" source="zFBNUTTaxacbtHMgRVgU-123" target="zFBNUTTaxacbtHMgRVgU-124">
          <mxGeometry relative="1" as="geometry" />
        </mxCell>
        <mxCell id="zFBNUTTaxacbtHMgRVgU-123" value="input to input" style="shape=parallelogram;perimeter=parallelogramPerimeter;whiteSpace=wrap;html=1;fixedSize=1;" vertex="1" parent="1">
          <mxGeometry x="1640" y="400" width="120" height="60" as="geometry" />
        </mxCell>
        <mxCell id="zFBNUTTaxacbtHMgRVgU-131" style="edgeStyle=orthogonalEdgeStyle;rounded=0;orthogonalLoop=1;jettySize=auto;html=1;exitX=0.5;exitY=1;exitDx=0;exitDy=0;entryX=0.5;entryY=0;entryDx=0;entryDy=0;" edge="1" parent="1" source="zFBNUTTaxacbtHMgRVgU-124" target="zFBNUTTaxacbtHMgRVgU-125">
          <mxGeometry relative="1" as="geometry" />
        </mxCell>
        <mxCell id="zFBNUTTaxacbtHMgRVgU-124" value="convert input to number and store in index" style="rounded=0;whiteSpace=wrap;html=1;" vertex="1" parent="1">
          <mxGeometry x="1640" y="500" width="120" height="60" as="geometry" />
        </mxCell>
        <mxCell id="zFBNUTTaxacbtHMgRVgU-133" style="edgeStyle=orthogonalEdgeStyle;rounded=0;orthogonalLoop=1;jettySize=auto;html=1;exitX=0.5;exitY=1;exitDx=0;exitDy=0;entryX=0.5;entryY=0;entryDx=0;entryDy=0;" edge="1" parent="1" source="zFBNUTTaxacbtHMgRVgU-125" target="zFBNUTTaxacbtHMgRVgU-132">
          <mxGeometry relative="1" as="geometry" />
        </mxCell>
        <mxCell id="zFBNUTTaxacbtHMgRVgU-125" value="borrow(..., index)" style="shape=process;whiteSpace=wrap;html=1;backgroundOutline=1;" vertex="1" parent="1">
          <mxGeometry x="1640" y="600" width="120" height="60" as="geometry" />
        </mxCell>
        <mxCell id="zFBNUTTaxacbtHMgRVgU-132" value="return" style="ellipse;whiteSpace=wrap;html=1;" vertex="1" parent="1">
          <mxGeometry x="1640" y="710" width="120" height="80" as="geometry" />
        </mxCell>
        <mxCell id="zFBNUTTaxacbtHMgRVgU-134" style="edgeStyle=orthogonalEdgeStyle;rounded=0;orthogonalLoop=1;jettySize=auto;html=1;exitX=0.5;exitY=1;exitDx=0;exitDy=0;entryX=0.5;entryY=0;entryDx=0;entryDy=0;" edge="1" parent="1" source="zFBNUTTaxacbtHMgRVgU-135" target="zFBNUTTaxacbtHMgRVgU-137">
          <mxGeometry relative="1" as="geometry" />
        </mxCell>
        <mxCell id="zFBNUTTaxacbtHMgRVgU-135" value="return(names, &amp;amp;avail)" style="ellipse;whiteSpace=wrap;html=1;" vertex="1" parent="1">
          <mxGeometry x="1840" width="120" height="80" as="geometry" />
        </mxCell>
        <mxCell id="zFBNUTTaxacbtHMgRVgU-136" style="edgeStyle=orthogonalEdgeStyle;rounded=0;orthogonalLoop=1;jettySize=auto;html=1;exitX=0.5;exitY=1;exitDx=0;exitDy=0;entryX=0.5;entryY=0;entryDx=0;entryDy=0;" edge="1" parent="1" source="zFBNUTTaxacbtHMgRVgU-137" target="zFBNUTTaxacbtHMgRVgU-139">
          <mxGeometry relative="1" as="geometry" />
        </mxCell>
        <mxCell id="zFBNUTTaxacbtHMgRVgU-137" value="string input" style="rounded=0;whiteSpace=wrap;html=1;" vertex="1" parent="1">
          <mxGeometry x="1840" y="110" width="120" height="60" as="geometry" />
        </mxCell>
        <mxCell id="zFBNUTTaxacbtHMgRVgU-138" style="edgeStyle=orthogonalEdgeStyle;rounded=0;orthogonalLoop=1;jettySize=auto;html=1;exitX=0.5;exitY=1;exitDx=0;exitDy=0;entryX=0.5;entryY=0;entryDx=0;entryDy=0;" edge="1" parent="1" source="zFBNUTTaxacbtHMgRVgU-139" target="zFBNUTTaxacbtHMgRVgU-141">
          <mxGeometry relative="1" as="geometry" />
        </mxCell>
        <mxCell id="zFBNUTTaxacbtHMgRVgU-139" value="index" style="rounded=0;whiteSpace=wrap;html=1;" vertex="1" parent="1">
          <mxGeometry x="1840" y="200" width="120" height="60" as="geometry" />
        </mxCell>
        <mxCell id="zFBNUTTaxacbtHMgRVgU-140" style="edgeStyle=orthogonalEdgeStyle;rounded=0;orthogonalLoop=1;jettySize=auto;html=1;exitX=0.5;exitY=1;exitDx=0;exitDy=0;entryX=0.5;entryY=0;entryDx=0;entryDy=0;" edge="1" parent="1" source="zFBNUTTaxacbtHMgRVgU-141" target="zFBNUTTaxacbtHMgRVgU-143">
          <mxGeometry relative="1" as="geometry" />
        </mxCell>
        <mxCell id="zFBNUTTaxacbtHMgRVgU-141" value="list_borrowed(...)" style="shape=process;whiteSpace=wrap;html=1;backgroundOutline=1;" vertex="1" parent="1">
          <mxGeometry x="1840" y="300" width="120" height="60" as="geometry" />
        </mxCell>
        <mxCell id="zFBNUTTaxacbtHMgRVgU-142" style="edgeStyle=orthogonalEdgeStyle;rounded=0;orthogonalLoop=1;jettySize=auto;html=1;exitX=0.5;exitY=1;exitDx=0;exitDy=0;entryX=0.5;entryY=0;entryDx=0;entryDy=0;" edge="1" parent="1" source="zFBNUTTaxacbtHMgRVgU-143" target="zFBNUTTaxacbtHMgRVgU-145">
          <mxGeometry relative="1" as="geometry" />
        </mxCell>
        <mxCell id="zFBNUTTaxacbtHMgRVgU-143" value="input to input" style="shape=parallelogram;perimeter=parallelogramPerimeter;whiteSpace=wrap;html=1;fixedSize=1;" vertex="1" parent="1">
          <mxGeometry x="1840" y="400" width="120" height="60" as="geometry" />
        </mxCell>
        <mxCell id="zFBNUTTaxacbtHMgRVgU-144" style="edgeStyle=orthogonalEdgeStyle;rounded=0;orthogonalLoop=1;jettySize=auto;html=1;exitX=0.5;exitY=1;exitDx=0;exitDy=0;entryX=0.5;entryY=0;entryDx=0;entryDy=0;" edge="1" parent="1" source="zFBNUTTaxacbtHMgRVgU-145" target="zFBNUTTaxacbtHMgRVgU-147">
          <mxGeometry relative="1" as="geometry" />
        </mxCell>
        <mxCell id="zFBNUTTaxacbtHMgRVgU-145" value="convert input to number and store in index" style="rounded=0;whiteSpace=wrap;html=1;" vertex="1" parent="1">
          <mxGeometry x="1840" y="500" width="120" height="60" as="geometry" />
        </mxCell>
        <mxCell id="zFBNUTTaxacbtHMgRVgU-146" style="edgeStyle=orthogonalEdgeStyle;rounded=0;orthogonalLoop=1;jettySize=auto;html=1;exitX=0.5;exitY=1;exitDx=0;exitDy=0;entryX=0.5;entryY=0;entryDx=0;entryDy=0;" edge="1" parent="1" source="zFBNUTTaxacbtHMgRVgU-147" target="zFBNUTTaxacbtHMgRVgU-148">
          <mxGeometry relative="1" as="geometry" />
        </mxCell>
        <mxCell id="zFBNUTTaxacbtHMgRVgU-147" value="return(..., index)" style="shape=process;whiteSpace=wrap;html=1;backgroundOutline=1;" vertex="1" parent="1">
          <mxGeometry x="1840" y="600" width="120" height="60" as="geometry" />
        </mxCell>
        <mxCell id="zFBNUTTaxacbtHMgRVgU-148" value="return" style="ellipse;whiteSpace=wrap;html=1;" vertex="1" parent="1">
          <mxGeometry x="1840" y="710" width="120" height="80" as="geometry" />
        </mxCell>
      </root>
    </mxGraphModel>
  </diagram>
</mxfile>
